<?xml version="1.0" encoding="UTF-8"?>
<!DOCTYPE svg PUBLIC "-//W3C//DTD SVG 1.1//EN" "http://www.w3.org/Graphics/SVG/1.1/DTD/svg11.dtd">
<!-- Creator: CorelDRAW -->
<svg xmlns="http://www.w3.org/2000/svg" xml:space="preserve" width="6.82666in" height="6.82666in" style="shape-rendering:geometricPrecision; text-rendering:geometricPrecision; image-rendering:optimizeQuality; fill-rule:evenodd; clip-rule:evenodd"
viewBox="0 0 6.82666 6.82666"
 xmlns:xlink="http://www.w3.org/1999/xlink">
 <defs>
  <style type="text/css">
   <![CDATA[
    .fil2 {fill:none}
    .fil3 {fill:#558B2F}
    .fil6 {fill:#689F38}
    .fil7 {fill:#AB1D1D}
    .fil4 {fill:#B71C1C}
    .fil5 {fill:#C62828}
    .fil1 {fill:#FFA726}
    .fil0 {fill:#FFB74D}
   ]]>
  </style>
   <clipPath id="id0">
    <path d="M3.41333 -3.93701e-006c1.88513,0 3.41333,1.5282 3.41333,3.41333 0,1.88513 -1.5282,3.41333 -3.41333,3.41333 -1.88513,0 -3.41333,-1.5282 -3.41333,-3.41333 0,-1.88513 1.5282,-3.41333 3.41333,-3.41333z"/>
   </clipPath>
 </defs>
 <g id="Layer_x0020_1">
  <metadata id="CorelCorpID_0Corel-Layer"/>
  <path class="fil0" d="M3.41333 -3.93701e-006c1.88513,0 3.41333,1.5282 3.41333,3.41333 0,1.88513 -1.5282,3.41333 -3.41333,3.41333 -1.88513,0 -3.41333,-1.5282 -3.41333,-3.41333 0,-1.88513 1.5282,-3.41333 3.41333,-3.41333z"/>
  <g style="clip-path:url(#id0)">
   <g id="_457168712">
    <g>
     <polygon id="_4545922961" class="fil1" points="3.30677,1.70235 7.09304,5.48862 7.11289,5.51448 7.12991,5.54144 7.14415,5.56931 7.15563,5.59789 7.16441,5.62699 7.17052,5.65641 7.174,5.68594 7.1749,5.71541 7.17326,5.74461 7.16911,5.77333 7.1625,5.8014 7.15346,5.82861 3.3672,2.04234 3.37623,2.01513 3.38284,1.98706 3.38699,1.95833 3.38863,1.92914 3.38774,1.89967 3.38425,1.87014 3.37814,1.84072 3.36937,1.81162 3.35788,1.78304 3.34365,1.75517 3.32662,1.7282 "/>
     <polygon id="_454592368" class="fil1" points="4.17084,1.7137 7.95711,5.49998 7.96064,5.50484 7.96333,5.50991 7.96517,5.51514 7.96617,5.52051 7.96631,5.52596 7.96559,5.53146 7.96401,5.53698 7.96156,5.54246 7.95825,5.54787 7.95405,5.55318 7.94898,5.55833 7.94302,5.5633 4.15675,1.77702 4.16271,1.77206 4.16778,1.76691 4.17198,1.7616 4.1753,1.75619 4.17774,1.75071 4.17932,1.74519 4.18004,1.73969 4.1799,1.73424 4.17891,1.72887 4.17706,1.72363 4.17437,1.71857 "/>
     <polygon id="_454593376" class="fil1" points="4.15675,1.77702 7.94302,5.5633 7.94237,5.56379 7.94044,5.56525 7.93731,5.56763 7.93304,5.5709 7.92769,5.57502 7.92131,5.57995 7.91397,5.58565 7.90574,5.59208 7.89668,5.59922 7.88684,5.607 7.87629,5.61541 7.86509,5.6244 7.8533,5.63393 7.84099,5.64397 7.82822,5.65447 7.81504,5.6654 7.80153,5.67672 7.78774,5.6884 7.77373,5.70038 7.75956,5.71265 7.74531,5.72514 7.73102,5.73784 7.71677,5.7507 7.70261,5.76368 7.68861,5.77674 7.67483,5.78985 7.66132,5.80297 7.64815,5.81606 7.63539,5.82907 7.6231,5.84198 7.61133,5.85475 7.60015,5.86733 3.81388,2.08106 3.82506,2.06848 3.83683,2.05571 3.84913,2.0428 3.86189,2.02978 3.87505,2.0167 3.88856,2.00358 3.90234,1.99047 3.91635,1.97741 3.9305,1.96443 3.94476,1.95157 3.95904,1.93887 3.9733,1.92637 3.98746,1.91411 4.00147,1.90213 4.01526,1.89045 4.02878,1.87913 4.04195,1.8682 4.05472,1.8577 4.06704,1.84766 4.07882,1.83813 4.09002,1.82914 4.10057,1.82073 4.11041,1.81294 4.11948,1.80581 4.1277,1.79938 4.13504,1.79368 4.14142,1.78875 4.14677,1.78463 4.15105,1.78136 4.15417,1.77898 4.1561,1.77752 "/>
     <polygon id="_454594288" class="fil1" points="3.3511,2.07761 7.13737,5.86388 7.1291,5.87837 7.12004,5.89235 7.11019,5.90581 7.09957,5.91869 7.08819,5.93096 7.07604,5.94259 7.06315,5.95351 7.04951,5.96371 7.03514,5.97314 7.02005,5.98175 7.00424,5.98952 6.98772,5.9964 6.9705,6.00235 6.95259,6.00733 6.934,6.0113 6.91473,6.01422 6.89479,6.01606 6.8742,6.01678 6.85295,6.01632 6.83106,6.01467 6.80854,6.01176 6.78539,6.00757 6.76163,6.00206 6.73725,5.99519 6.71228,5.98691 6.6867,5.97719 6.66055,5.96598 6.63382,5.95326 6.60652,5.93897 6.57867,5.92308 6.55026,5.90555 6.52131,5.88634 2.73504,2.10007 2.76399,2.11928 2.7924,2.13681 2.82026,2.1527 2.84756,2.16698 2.87428,2.17971 2.90044,2.19091 2.92601,2.20063 2.95098,2.20891 2.97536,2.21579 2.99912,2.2213 3.02227,2.22549 3.0448,2.22839 3.06668,2.23005 3.08793,2.2305 3.10852,2.22979 3.12846,2.22795 3.14773,2.22503 3.16632,2.22106 3.18423,2.21607 3.20145,2.21013 3.21797,2.20325 3.23378,2.19548 3.24887,2.18687 3.26324,2.17744 3.27688,2.16724 3.28977,2.15631 3.30192,2.14469 3.3133,2.13242 3.32392,2.11954 3.33377,2.10608 3.34283,2.09209 "/>
     <polygon id="_454593880" class="fil1" points="3.52572,2.47421 7.31198,6.26048 7.31074,6.26248 7.30929,6.26481 7.30766,6.26743 7.30587,6.2703 7.30394,6.27339 7.30191,6.27665 7.29979,6.28006 7.29761,6.28356 7.29539,6.28712 7.29316,6.2907 7.29094,6.29426 7.28876,6.29777 7.28664,6.30118 7.28461,6.30446 7.28269,6.30756 7.2809,6.31045 3.49463,2.52418 3.49642,2.52129 3.49834,2.51819 3.50037,2.51491 3.50249,2.5115 3.50467,2.50799 3.50689,2.50443 3.50912,2.50085 3.51134,2.49728 3.51352,2.49378 3.51564,2.49038 3.51767,2.48712 3.5196,2.48403 3.52139,2.48115 3.52302,2.47854 3.52448,2.4762 "/>
     <polygon id="_454594216" class="fil1" points="3.45683,2.17443 7.24309,5.9607 7.2363,5.95463 7.22955,5.94855 7.22282,5.94247 7.21613,5.93639 7.20946,5.93032 7.20282,5.92424 7.1962,5.91817 7.18961,5.9121 7.18304,5.90604 7.17648,5.89998 7.16993,5.89394 7.16341,5.8879 7.15689,5.88188 7.15037,5.87587 7.14387,5.86987 7.13737,5.86388 3.3511,2.07761 3.3576,2.08359 3.36411,2.08959 3.37062,2.09561 3.37714,2.10163 3.38367,2.10767 3.39021,2.11371 3.39677,2.11977 3.40334,2.12583 3.40994,2.1319 3.41656,2.13797 3.42319,2.14405 3.42986,2.15012 3.43656,2.1562 3.44328,2.16228 3.45004,2.16835 "/>
     <polygon id="_454594456" class="fil1" points="3.42722,2.23537 7.21348,6.02164 7.21197,6.0219 3.4257,2.23563 "/>
     <polygon id="_454593760" class="fil1" points="3.41293,5.20473 7.1992,8.991 7.11708,9.02267 7.03639,9.04488 6.9572,9.05803 6.87959,9.0625 6.80363,9.05869 6.72942,9.04697 6.65701,9.02775 6.58649,9.0014 6.51794,8.96831 6.45144,8.92889 6.38706,8.8835 6.32488,8.83254 2.53861,5.04627 2.60079,5.09722 2.66517,5.14261 2.73168,5.18204 2.80022,5.21513 2.87074,5.24148 2.94315,5.2607 3.01737,5.27241 3.09332,5.27623 3.17093,5.27176 3.25012,5.25861 3.33081,5.23639 "/>
     <polygon id="_454594384" class="fil1" points="3.81388,2.08106 7.60015,5.86733 7.58888,5.88035 7.57774,5.8934 7.56673,5.90646 7.55586,5.91954 7.54512,5.93261 7.53452,5.94568 7.52406,5.95874 7.51375,5.97178 7.50357,5.9848 7.49354,5.99778 7.48365,6.01072 7.47391,6.02361 7.46431,6.03644 7.45487,6.04922 7.44557,6.06193 7.43643,6.07456 7.42744,6.08711 7.41861,6.09957 7.40993,6.11193 7.40141,6.12419 7.39305,6.13633 7.38485,6.14835 7.37681,6.16025 7.36894,6.17202 7.36122,6.18364 7.35368,6.19512 7.3463,6.20644 7.3391,6.2176 7.33206,6.22859 7.32519,6.23941 7.3185,6.25004 7.31198,6.26048 3.52572,2.47421 3.53223,2.46377 3.53893,2.45314 3.54579,2.44232 3.55283,2.43133 3.56004,2.42017 3.56741,2.40885 3.57496,2.39737 3.58267,2.38574 3.59054,2.37398 3.59858,2.36208 3.60678,2.35006 3.61515,2.33791 3.62367,2.32566 3.63234,2.3133 3.64118,2.30084 3.65017,2.28829 3.65931,2.27566 3.6686,2.26295 3.67805,2.25017 3.68764,2.23733 3.69738,2.22444 3.70727,2.2115 3.7173,2.19852 3.72748,2.18551 3.7378,2.17247 3.74826,2.15941 3.75885,2.14634 3.76959,2.13326 3.78046,2.12019 3.79147,2.10713 3.80261,2.09408 "/>
     <polygon id="_454594504" class="fil1" points="2.73504,2.10007 6.52131,5.88634 6.5085,5.87728 6.49567,5.86769 6.48278,5.8576 6.46985,5.84706 6.45685,5.83608 6.44377,5.82471 6.4306,5.81299 6.41733,5.80094 6.40395,5.78861 6.39045,5.77602 6.37681,5.76322 6.36302,5.75022 6.34907,5.73709 6.33495,5.72383 6.32065,5.7105 6.30616,5.69711 6.29146,5.68372 6.27654,5.67036 6.26139,5.65705 6.246,5.64383 6.23036,5.63074 6.21446,5.61782 6.19828,5.60509 6.18181,5.5926 6.16505,5.58037 6.14797,5.56844 6.13057,5.55685 6.11284,5.54562 6.09476,5.53481 6.07633,5.52443 6.05753,5.51452 6.03835,5.50513 2.25208,1.71886 2.27126,1.72825 2.29006,1.73816 2.3085,1.74854 2.32657,1.75935 2.34431,1.77057 2.3617,1.78217 2.37878,1.79409 2.39554,1.80633 2.41201,1.81882 2.42819,1.83155 2.44409,1.84447 2.45974,1.85756 2.47512,1.87078 2.49027,1.88409 2.50519,1.89745 2.51989,1.91084 2.53439,1.92422 2.54869,1.93756 2.5628,1.95081 2.57675,1.96395 2.59054,1.97694 2.60418,1.98975 2.61769,2.00234 2.63107,2.01467 2.64433,2.02672 2.6575,2.03844 2.67058,2.04981 2.68358,2.06078 2.69652,2.07133 2.7094,2.08142 2.72223,2.09101 "/>
     <polygon id="_454595200" class="fil1" points="4.68243,2.67334 8.46869,6.45961 8.50654,6.50426 8.54178,6.5518 8.57435,6.60215 8.60417,6.65523 8.63116,6.71095 8.65526,6.76923 8.67638,6.82998 8.69446,6.89311 8.70942,6.95855 8.72119,7.0262 8.72968,7.09599 8.73483,7.16783 8.73657,7.24163 4.9503,3.45536 4.94857,3.38156 4.94341,3.30972 4.93492,3.23993 4.92315,3.17228 4.9082,3.10684 4.89011,3.0437 4.86899,2.98296 4.84489,2.92468 4.8179,2.86896 4.78808,2.81588 4.75551,2.76553 4.72027,2.71799 "/>
     <polygon id="_454594816" class="fil1" points="4.9503,3.45536 8.73657,7.24163 8.7348,7.32248 8.72953,7.40561 8.7208,7.49059 8.70868,7.57706 8.69321,7.6646 8.67445,7.75282 8.65244,7.84133 8.62724,7.92974 8.59889,8.01763 8.56746,8.10464 8.533,8.19034 8.49554,8.27436 8.45515,8.35629 8.41189,8.43574 8.36578,8.51232 8.31691,8.58562 8.2653,8.65526 8.21102,8.72084 8.15412,8.78196 8.09464,8.83822 8.03265,8.88924 7.96819,8.93462 7.90131,8.97395 7.83206,9.00685 7.76051,9.03293 7.68669,9.05178 7.61066,9.063 7.53248,9.06622 7.45219,9.06102 7.36984,9.04701 7.2855,9.0238 7.1992,8.991 3.41293,5.20473 3.49923,5.23753 3.58357,5.26074 3.66592,5.27474 3.74621,5.27994 3.82439,5.27673 3.90042,5.2655 3.97424,5.24666 4.0458,5.22058 4.11504,5.18768 4.18192,5.14835 4.24638,5.10297 4.30837,5.05195 4.36785,4.99569 4.42475,4.93457 4.47904,4.86899 4.53064,4.79935 4.57952,4.72605 4.62562,4.64947 4.66889,4.57002 4.70928,4.48809 4.74673,4.40407 4.7812,4.31837 4.81263,4.23136 4.84097,4.14346 4.86617,4.05506 4.88818,3.96655 4.90694,3.87833 4.92241,3.79079 4.93454,3.70432 4.94326,3.61933 4.94853,3.53621 "/>
    </g>
    <path id="_457169600" class="fil1" d="M2.25208 1.71886c0.927098,-0.426358 1.22423,0.0385276 1.11512,0.32348 0.0359843,0.0313858 0.0714173,0.063378 0.107445,0.0949134l0.0159213 -0.0332283c0.00318898,-0.00664961 0.00471654,-0.0136654 0.00476378,-0.0205748 0.152417,-0.328169 0.261551,-0.485055 0.261551,-0.485055 0.0258661,-0.0342559 0.0787126,-0.047189 0.117433,-0.0292913l0.274087 0.128051c0.0387205,0.0182874 0.0425,0.0539724 0.00835433,0.0798701 0,0 -0.22698,0.170941 -0.34287,0.304039 -0.120941,0.13874 -0.219583,0.282819 -0.288165,0.393146 -0.00602756,0.00970079 -0.0219567,0.0351772 -0.0310827,0.0499724 0.0200354,-0.0119567 0.0437165,-0.0249843 0.0735866,-0.0366181 0.786083,-0.306217 1.38208,0.170409 1.38208,0.967795 0,0.848984 -0.606638,2.15187 -1.53737,1.74937 -0.883236,0.389567 -1.53657,-0.900386 -1.53657,-1.74937 0,-0.806134 0.703102,-1.26622 1.43427,-0.948701 0.000704724,0.000700787 0.00140945,0.0013937 0.0021063,0.00207874 0.000917323,-0.000102362 0.00188189,-0.00015748 0.0028937,-0.000161417 0.0354843,-0.0918031 0.0724843,-0.182878 0.111587,-0.273205l-0.00151181 0.000255906c0.00267323,-0.00312992 0.00498819,-0.00665748 0.00685039,-0.0105433l0.0242717 -0.0506535c-0.036315,-0.032378 -0.0710669,-0.0649449 -0.105724,-0.0968189 -0.0839843,0.15698 -0.304374,0.236449 -0.616063,0.0224606 -0.136472,-0.0936929 -0.276276,-0.283843 -0.482961,-0.381213z"/>
   </g>
  </g>
  <path class="fil2" d="M3.41333 -3.93701e-006c1.88513,0 3.41333,1.5282 3.41333,3.41333 0,1.88513 -1.5282,3.41333 -3.41333,3.41333 -1.88513,0 -3.41333,-1.5282 -3.41333,-3.41333 0,-1.88513 1.5282,-3.41333 3.41333,-3.41333z"/>
  <path class="fil3" d="M3.4257 2.23563l0.00151181 -0.000255906c-0.0391024,0.0903268 -0.0761024,0.181402 -0.111587,0.273205 -0.0522244,0.000177165 0.0191339,0.137102 0.174252,0.0233661 0.00662598,-0.0109567 0.0285197,-0.0459606 0.0358346,-0.0577323 0.0685827,-0.110327 0.167224,-0.254406 0.288165,-0.393146 0.11589,-0.133098 0.34287,-0.304039 0.34287,-0.304039 0.0341457,-0.0258976 0.0303661,-0.0615827 -0.00835433,-0.0798701l-0.274087 -0.128051c-0.0387205,-0.0178976 -0.0915669,-0.00496457 -0.117433,0.0292913 0,0 -0.109134,0.156886 -0.261551,0.485055 -4.72441e-005,0.00690945 -0.0015748,0.0139252 -0.00476378,0.0205748l-0.0580079 0.121059c-0.0018622,0.00388583 -0.00417717,0.00741339 -0.00685039,0.0105433z"/>
  <path class="fil4" d="M3.31063 2.50666c-0.731165,-0.317524 -1.43427,0.142567 -1.43427,0.948701 0,0.848984 0.653331,2.13894 1.53657,1.74937 0.930732,0.402504 1.53737,-0.900386 1.53737,-1.74937 0,-0.797386 -0.595996,-1.27401 -1.38208,-0.967795 -0.133941,0.0521772 -0.143461,0.132272 -0.257591,0.0190945z"/>
  <path class="fil5" d="M2.6745 4.9434c0.211378,0.17063 0.465732,0.236866 0.746106,0.113201 0.829929,0.358909 1.37087,-0.802874 1.37087,-1.55991 0,-0.673571 -0.476969,-1.09035 -1.12312,-0.900264 0.208945,0.248488 0.333803,0.562831 0.333803,0.904736 0,0.735425 -0.577457,1.34343 -1.32766,1.44224z"/>
  <path class="fil6" d="M2.25208 1.71886c0.206685,0.0973701 0.346484,0.28752 0.482961,0.381213 0.86585,0.594445 1.02714,-1.07569 -0.482961,-0.381213z"/>
  <path class="fil3" d="M3.50503 2.16359c-0.183748,-0.157299 -0.344217,-0.333567 -0.628398,-0.393846 -0.115154,-0.0244252 -0.140429,-0.0379331 -0.262421,-0.0370197l0.00132283 0c-0.0495551,0.00522441 -0.068563,0.0142795 -0.113689,0.0290472 0.0384449,-0.0036811 0.0113031,0.000255906 0.0567165,-0.00954724 0.109366,-0.0236024 0.207697,0.0128661 0.313146,0.0383622 0.296654,0.0717402 0.435815,0.260425 0.639886,0.43128l-0.00656299 -0.0582756z"/>
  <path class="fil3" d="M2.96493 1.79553c-0.018752,0.00197244 -0.0378425,0.00470079 -0.0573228,0.00829134 -0.0978031,0.0180197 -0.121898,0.0156181 -0.216882,0.0556339l0.00103543 -0.000425197c-0.0370197,0.0200472 -0.0489449,0.0332402 -0.0794331,0.059315 0.0288386,-0.0152598 0.00890945,-0.00344094 0.0412205,-0.0257283 0.077811,-0.0536693 0.166358,-0.0568701 0.256929,-0.0709291 0.0198976,-0.00308661 0.0392756,-0.00531102 0.0581929,-0.00674803 -0.0036811,-0.00574803 -0.00500394,-0.0127165 -0.00374016,-0.0194094z"/>
  <path class="fil3" d="M3.17419 1.89138c-0.00105906,0.000188976 -0.00211024,0.000362205 -0.00316929,0.000559055 -0.115764,0.0213307 -0.14428,0.0184843 -0.256709,0.0658504l0.00122835 -0.000503937c-0.0438228,0.0237283 -0.057937,0.0393465 -0.0940197,0.0702087 0.0341339,-0.018063 0.0105433,-0.0040748 0.0487874,-0.0304567 0.0920984,-0.0635236 0.196909,-0.067311 0.30411,-0.0839528l0.00230709 -0.000338583c-0.00329921,-0.00658268 -0.00420472,-0.014189 -0.00253543,-0.0213661z"/>
  <path class="fil3" d="M2.84432 1.78137c-0.00940157,-0.00838189 -0.0183898,-0.0171339 -0.0269094,-0.0263071 -0.0427795,-0.0460512 -0.0588583,-0.0553386 -0.0821654,-0.106835l0.000259843 0.000559055c-0.00548031,-0.0214134 -0.00179134,-0.0303386 0.00144488,-0.0508465 0.00455906,0.0165709 0.00243701,0.00473622 0.00333858,0.0248661 0.0021811,0.0484685 0.0515315,0.0862165 0.0932756,0.128071 0.00916929,0.00919685 0.0187362,0.0179134 0.0286693,0.0262047 -0.00681496,0.000200787 -0.0132323,0.00174803 -0.0179134,0.0042874z"/>
  <path class="fil3" d="M3.10902 1.87381c-0.000555118,-0.000594488 -0.00111811,-0.00117717 -0.00166929,-0.00177559 -0.0602126,-0.065248 -0.0811378,-0.077878 -0.119563,-0.152567l0.000425197 0.000811024c-0.0110118,-0.0313504 -0.00856299,-0.0448386 -0.00911024,-0.0754646 0.0088937,0.0242402 0.00388189,0.00685039 0.00922441,0.0366181 0.012878,0.0716929 0.0790709,0.124165 0.137173,0.183264l0.00126378 0.00126378c-0.00712598,0.00119685 -0.0134449,0.00398819 -0.0177441,0.00785039z"/>
  <path class="fil7" d="M2.93294 2.61143c0.193823,0 0.372091,0.0691063 0.513213,0.184846 -0.124717,-0.0665591 -0.266138,-0.104142 -0.416024,-0.104142 -0.501591,0 -0.908469,0.420736 -0.911079,0.940756 -0.00956693,-0.0522992 -0.0146378,-0.106248 -0.0146378,-0.161433 0,-0.474976 0.370949,-0.860028 0.828528,-0.860028z"/>
 </g>
</svg>
